<mxfile host="app.diagrams.net" modified="2021-01-24T10:29:58.673Z" agent="5.0 (Macintosh; Intel Mac OS X 10_15_5) AppleWebKit/537.36 (KHTML, like Gecko) Chrome/85.0.4183.102 Safari/537.36" etag="ZgbfOaJZvKfoZinHHcwL" version="14.2.7" type="github">
  <diagram name="Page-1" id="74e2e168-ea6b-b213-b513-2b3c1d86103e">
    <mxGraphModel dx="786" dy="514" grid="1" gridSize="10" guides="1" tooltips="1" connect="1" arrows="1" fold="1" page="1" pageScale="1" pageWidth="1100" pageHeight="850" background="#ffffff" math="0" shadow="0">
      <root>
        <mxCell id="0" />
        <mxCell id="1" parent="0" />
        <mxCell id="hKcRoI-94FGpBnaAxN14-10" style="edgeStyle=orthogonalEdgeStyle;rounded=0;orthogonalLoop=1;jettySize=auto;html=1;exitX=1;exitY=0.5;exitDx=0;exitDy=0;entryX=0;entryY=0.75;entryDx=0;entryDy=0;" edge="1" parent="1" source="hKcRoI-94FGpBnaAxN14-2" target="hKcRoI-94FGpBnaAxN14-4">
          <mxGeometry relative="1" as="geometry" />
        </mxCell>
        <mxCell id="hKcRoI-94FGpBnaAxN14-2" value="master&amp;nbsp;&lt;br&gt;" style="rounded=0;whiteSpace=wrap;html=1;" vertex="1" parent="1">
          <mxGeometry x="90" y="200" width="80" height="70" as="geometry" />
        </mxCell>
        <mxCell id="hKcRoI-94FGpBnaAxN14-3" value="slave1&lt;br&gt;分片信息：1-1000w" style="rounded=0;whiteSpace=wrap;html=1;" vertex="1" parent="1">
          <mxGeometry x="310" y="80" width="120" height="60" as="geometry" />
        </mxCell>
        <mxCell id="hKcRoI-94FGpBnaAxN14-4" value="slave2&lt;br&gt;分片信息：1000w-2000w" style="rounded=0;whiteSpace=wrap;html=1;" vertex="1" parent="1">
          <mxGeometry x="310" y="190" width="120" height="60" as="geometry" />
        </mxCell>
        <mxCell id="hKcRoI-94FGpBnaAxN14-5" value="slave10&lt;br&gt;分片信息：9000w-1e" style="rounded=0;whiteSpace=wrap;html=1;" vertex="1" parent="1">
          <mxGeometry x="311" y="365" width="120" height="60" as="geometry" />
        </mxCell>
        <mxCell id="hKcRoI-94FGpBnaAxN14-12" value="" style="endArrow=classic;html=1;entryX=0;entryY=0.5;entryDx=0;entryDy=0;exitX=0.75;exitY=1;exitDx=0;exitDy=0;" edge="1" parent="1" source="hKcRoI-94FGpBnaAxN14-2" target="hKcRoI-94FGpBnaAxN14-5">
          <mxGeometry width="50" height="50" relative="1" as="geometry">
            <mxPoint x="200" y="320" as="sourcePoint" />
            <mxPoint x="250" y="270" as="targetPoint" />
          </mxGeometry>
        </mxCell>
        <mxCell id="hKcRoI-94FGpBnaAxN14-13" value="slave..." style="rounded=0;whiteSpace=wrap;html=1;" vertex="1" parent="1">
          <mxGeometry x="310" y="270" width="120" height="60" as="geometry" />
        </mxCell>
        <mxCell id="hKcRoI-94FGpBnaAxN14-14" value="" style="endArrow=classic;html=1;exitX=1;exitY=0.75;exitDx=0;exitDy=0;entryX=0;entryY=0.75;entryDx=0;entryDy=0;" edge="1" parent="1" source="hKcRoI-94FGpBnaAxN14-2" target="hKcRoI-94FGpBnaAxN14-13">
          <mxGeometry width="50" height="50" relative="1" as="geometry">
            <mxPoint x="380" y="290" as="sourcePoint" />
            <mxPoint x="430" y="240" as="targetPoint" />
          </mxGeometry>
        </mxCell>
        <mxCell id="hKcRoI-94FGpBnaAxN14-15" value="" style="endArrow=classic;html=1;" edge="1" parent="1" source="hKcRoI-94FGpBnaAxN14-2" target="hKcRoI-94FGpBnaAxN14-3">
          <mxGeometry width="50" height="50" relative="1" as="geometry">
            <mxPoint x="380" y="280" as="sourcePoint" />
            <mxPoint x="430" y="230" as="targetPoint" />
          </mxGeometry>
        </mxCell>
        <mxCell id="hKcRoI-94FGpBnaAxN14-16" value="数据库" style="shape=cylinder3;whiteSpace=wrap;html=1;boundedLbl=1;backgroundOutline=1;size=15;" vertex="1" parent="1">
          <mxGeometry x="710" y="80" width="60" height="80" as="geometry" />
        </mxCell>
        <mxCell id="hKcRoI-94FGpBnaAxN14-18" value="缓存" style="rounded=1;whiteSpace=wrap;html=1;" vertex="1" parent="1">
          <mxGeometry x="680" y="310" width="120" height="60" as="geometry" />
        </mxCell>
        <mxCell id="hKcRoI-94FGpBnaAxN14-19" value="" style="endArrow=classic;html=1;exitX=1;exitY=0.25;exitDx=0;exitDy=0;entryX=0;entryY=0;entryDx=0;entryDy=27.5;entryPerimeter=0;" edge="1" parent="1" source="hKcRoI-94FGpBnaAxN14-3" target="hKcRoI-94FGpBnaAxN14-16">
          <mxGeometry width="50" height="50" relative="1" as="geometry">
            <mxPoint x="440" y="310" as="sourcePoint" />
            <mxPoint x="700" y="140" as="targetPoint" />
            <Array as="points" />
          </mxGeometry>
        </mxCell>
        <mxCell id="hKcRoI-94FGpBnaAxN14-21" value="继续拆分1000片，一次1w条数据" style="edgeLabel;html=1;align=center;verticalAlign=middle;resizable=0;points=[];" vertex="1" connectable="0" parent="hKcRoI-94FGpBnaAxN14-19">
          <mxGeometry x="-0.7304" y="-1" relative="1" as="geometry">
            <mxPoint x="74.85" y="-16.59" as="offset" />
          </mxGeometry>
        </mxCell>
        <mxCell id="hKcRoI-94FGpBnaAxN14-22" value="" style="endArrow=classic;html=1;entryX=1;entryY=0.75;entryDx=0;entryDy=0;" edge="1" parent="1" source="hKcRoI-94FGpBnaAxN14-23" target="hKcRoI-94FGpBnaAxN14-3">
          <mxGeometry width="50" height="50" relative="1" as="geometry">
            <mxPoint x="700" y="140" as="sourcePoint" />
            <mxPoint x="540" y="140" as="targetPoint" />
            <Array as="points" />
          </mxGeometry>
        </mxCell>
        <mxCell id="hKcRoI-94FGpBnaAxN14-23" value="1w条数据" style="text;html=1;align=center;verticalAlign=middle;resizable=0;points=[];autosize=1;" vertex="1" parent="1">
          <mxGeometry x="530" y="120" width="70" height="20" as="geometry" />
        </mxCell>
        <mxCell id="hKcRoI-94FGpBnaAxN14-25" value="" style="endArrow=classic;html=1;entryX=1;entryY=0.75;entryDx=0;entryDy=0;" edge="1" parent="1" target="hKcRoI-94FGpBnaAxN14-23">
          <mxGeometry width="50" height="50" relative="1" as="geometry">
            <mxPoint x="700" y="140" as="sourcePoint" />
            <mxPoint x="430" y="125" as="targetPoint" />
            <Array as="points" />
          </mxGeometry>
        </mxCell>
        <mxCell id="hKcRoI-94FGpBnaAxN14-26" value="" style="endArrow=classic;html=1;exitX=1;exitY=1;exitDx=0;exitDy=0;" edge="1" parent="1" source="hKcRoI-94FGpBnaAxN14-3">
          <mxGeometry width="50" height="50" relative="1" as="geometry">
            <mxPoint x="440" y="310" as="sourcePoint" />
            <mxPoint x="670" y="350" as="targetPoint" />
          </mxGeometry>
        </mxCell>
        <mxCell id="hKcRoI-94FGpBnaAxN14-27" value="1w数据刷入缓存" style="edgeLabel;html=1;align=center;verticalAlign=middle;resizable=0;points=[];" vertex="1" connectable="0" parent="hKcRoI-94FGpBnaAxN14-26">
          <mxGeometry x="0.0926" y="-2" relative="1" as="geometry">
            <mxPoint x="10.37" y="-16.08" as="offset" />
          </mxGeometry>
        </mxCell>
      </root>
    </mxGraphModel>
  </diagram>
</mxfile>
